:version 1.10
:name ASF
:units
  mass 1
  length 1
  angle deg
:documentation
  ASF file generated by Kaydara
:root
  axis xyz
  order  tx ty tz rx ry rz
  position 0 0 0
  orientation 0 0 0
:bonedata
  begin
    id 1
    name lfemurDummy
    direction 0.61522 -0.761478 0.204097
    length 5.68318
    axis 0 -0 0 xyz
  end
  begin
    id 2
    name lfemur
    direction 0.34202 -0.939693 -5.84747e-008
    length 16.9147
    axis 0 -0 20 xyz
    dof rx ry rz
    limits( -inf , inf )
( -inf , inf )
( -inf , inf )

  end
  begin
    id 3
    name ltibia
    direction 0.34202 -0.939693 1.20839e-009
    length 18.0532
    axis 0 -0 20 xyz
    dof rz ry rx
    limits( -inf , inf )
( -inf , inf )
( -inf , inf )

  end
  begin
    id 4
    name lfoot
    direction 0.0841971 -0.23133 0.969225
    length 5.23822
    axis -90 7.62852e-016 20 xyz
    dof ry rx rz
    limits( -inf , inf )
( -inf , inf )
( -inf , inf )

  end
  begin
    id 5
    name ltoes
    direction 0 0 0
    length 0
    axis 0 0 0 xyz
    dof rz ry rx
    limits( -inf , inf )
( -inf , inf )
( -inf , inf )

  end
  begin
    id 6
    name rfemurDummy
    direction -0.625247 -0.75382 0.202044
    length 5.74091
    axis 0 -0 0 xyz
  end
  begin
    id 7
    name rfemur
    direction -0.34202 -0.939693 -1.47013e-008
    length 16.4922
    axis 0 -0 -20 xyz
    dof rx ry rz
    limits( -inf , inf )
( -inf , inf )
( -inf , inf )

  end
  begin
    id 8
    name rtibia
    direction -0.34202 -0.939693 -7.74345e-010
    length 18.2421
    axis 0 -0 -20 xyz
    dof rz ry rx
    limits( -inf , inf )
( -inf , inf )
( -inf , inf )

  end
  begin
    id 9
    name rfoot
    direction -0.124331 -0.341598 0.931586
    length 5.45787
    axis -90 -7.62852e-016 -20 xyz
    dof ry rx rz
    limits( -inf , inf )
( -inf , inf )
( -inf , inf )

  end
  begin
    id 10
    name rtoes
    direction 0 0 0
    length 0
    axis 0 0 0 xyz
    dof rz ry rx
    limits( -inf , inf )
( -inf , inf )
( -inf , inf )

  end
  begin
    id 11
    name lowerbackDummy
    direction 0 0 0
    length 0
    axis 0 -0 0 xyz
  end
  begin
    id 12
    name lowerback
    direction -0.0218484 0.994884 -0.0986304
    length 4.45607
    axis 0 -0 0 xyz
    dof rx ry rz
    limits( -inf , inf )
( -inf , inf )
( -inf , inf )

  end
  begin
    id 13
    name upperback
    direction -0.00973057 0.999717 -0.0217111
    length 4.47449
    axis 0 -0 0 xyz
    dof rx ry rz
    limits( -inf , inf )
( -inf , inf )
( -inf , inf )

  end
  begin
    id 14
    name thorax
    direction -0.000928171 0.999699 0.0245198
    length 4.50973
    axis 0 -0 0 xyz
    dof rx ry rz
    limits( -inf , inf )
( -inf , inf )
( -inf , inf )

  end
  begin
    id 15
    name rclavicle
    direction -0.9009 0.425937 -0.0834055
    length 7.28587
    axis 0 -0 0 xyz
    dof rx ry rz
    limits( -inf , inf )
( -inf , inf )
( -inf , inf )

  end
  begin
    id 16
    name rhumerus
    direction -1 -2.23604e-007 -1.42637e-007
    length 13.5704
    axis 180 30 90 xyz
    dof rx ry rz
    limits( -inf , inf )
( -inf , inf )
( -inf , inf )

  end
  begin
    id 17
    name rradius
    direction -1 5.68281e-008 -4.4952e-007
    length 8.06782
    axis 180 30 90 xyz
    dof rz ry rx
    limits( -inf , inf )
( -inf , inf )
( -inf , inf )

  end
  begin
    id 18
    name rwrist
    direction -1 1.51393e-007 1.38143e-007
    length 4.03391
    axis -90 -90 0 xyz
    dof rz rx ry
    limits( -inf , inf )
( -inf , inf )
( -inf , inf )

  end
  begin
    id 19
    name rthumb
    direction 0 0 0
    length 0
    axis 0 0 0 xyz
    dof ry rx rz
    limits( -inf , inf )
( -inf , inf )
( -inf , inf )

  end
  begin
    id 20
    name rhand
    direction -1 -3.34077e-007 -5.59631e-007
    length 1.29744
    axis -90 -90 0 xyz
    dof ry rx rz
    limits( -inf , inf )
( -inf , inf )
( -inf , inf )

  end
  begin
    id 21
    name rfingers
    direction 0 0 0
    length 0
    axis 0 0 0 xyz
    dof rz ry rx
    limits( -inf , inf )
( -inf , inf )
( -inf , inf )

  end
  begin
    id 22
    name lclavicle
    direction 0.940017 0.332249 -0.0773232
    length 8.29589
    axis 0 -0 0 xyz
    dof rx ry rz
    limits( -inf , inf )
( -inf , inf )
( -inf , inf )

  end
  begin
    id 23
    name lhumerus
    direction 1 7.41158e-008 -1.44768e-008
    length 12.0042
    axis 180 -30 -90 xyz
    dof rx ry rz
    limits( -inf , inf )
( -inf , inf )
( -inf , inf )

  end
  begin
    id 24
    name lradius
    direction 1 -1.32972e-007 3.10821e-007
    length 8.1902
    axis 180 -30 -90 xyz
    dof rz ry rx
    limits( -inf , inf )
( -inf , inf )
( -inf , inf )

  end
  begin
    id 25
    name lwrist
    direction 1 3.08957e-007 4.01394e-007
    length 4.09509
    axis -90 90 0 xyz
    dof rz rx ry
    limits( -inf , inf )
( -inf , inf )
( -inf , inf )

  end
  begin
    id 26
    name lthumb
    direction 0 0 0
    length 0
    axis 0 0 0 xyz
    dof ry rx rz
    limits( -inf , inf )
( -inf , inf )
( -inf , inf )

  end
  begin
    id 27
    name lhand
    direction 1 -1.64125e-007 -6.99514e-007
    length 1.37229
    axis -90 90 0 xyz
    dof ry rx rz
    limits( -inf , inf )
( -inf , inf )
( -inf , inf )

  end
  begin
    id 28
    name lfingers
    direction 0 0 0
    length 0
    axis 0 0 0 xyz
    dof rz ry rx
    limits( -inf , inf )
( -inf , inf )
( -inf , inf )

  end
  begin
    id 29
    name lowerneck
    direction -0.030798 0.998024 0.0547665
    length 3.93918
    axis 0 -0 0 xyz
    dof rx ry rz
    limits( -inf , inf )
( -inf , inf )
( -inf , inf )

  end
  begin
    id 30
    name upperneck
    direction 0.0531588 0.996611 -0.0627736
    length 3.95491
    axis 0 -0 0 xyz
    dof rx ry rz
    limits( -inf , inf )
( -inf , inf )
( -inf , inf )

  end
  begin
    id 31
    name head
    direction 0 0 0
    length 0
    axis 0 0 0 xyz
    dof rx ry rz
    limits( -inf , inf )
( -inf , inf )
( -inf , inf )

  end
:hierarchy
  begin
    root lfemurDummy rfemurDummy lowerbackDummy
    lfemurDummy lfemur
    lfemur ltibia
    ltibia lfoot
    lfoot ltoes
    rfemurDummy rfemur
    rfemur rtibia
    rtibia rfoot
    rfoot rtoes
    lowerbackDummy lowerback
    lowerback upperback
    upperback thorax
    thorax rclavicle lclavicle lowerneck
    rclavicle rhumerus
    rhumerus rradius
    rradius rwrist
    rwrist rthumb rhand
    rhand rfingers
    lclavicle lhumerus
    lhumerus lradius
    lradius lwrist
    lwrist lthumb lhand
    lhand lfingers
    lowerneck upperneck
    upperneck head
  end

:SAMPLES-PER-SECOND 30
:FULLY-SPECIFIED
:DEGREES
38
root  5.865199923 36.37311139 9.438822589 2.296005249 -37.09399414 0.1349945068
lowerback  14.00399971 -1.776669979 -1.741860032
upperback  4.606289864 -2.57743001 2.180860043
thorax  -2.804689884 -1.333279967 3.682320118
lowerneck  -7.336730003 10.82209969 -4.059679985
upperneck  4.745969772 15.12129974 -4.196770191
head  2.804949999 7.279029846 0.02450020052
lclavicle  0 -9.442270133e-015 7.951389973e-016
lhumerus  7.651820183 -1.139099956 75.30639648
lradius  2.515637655e-031 -2.477985316e-031 135.4320068
lwrist  -7.062250077e-031 -1.765562519e-031 11.72879982
lhand  -1.496451383e-031 -27.76390076 20.11240005
lfingers  90 7.125020027 -90
lthumb  89.89689403 5.08795885 91.16245106
rclavicle  0 -9.442270133e-015 7.951389973e-016
rhumerus  -46.04899979 18.01539993 -75.24939728
rradius  -1.769777429e-031 3.055606632e-031 120.0790024
rwrist  7.062250077e-031 -3.531125038e-031 -5.066500187
rhand  -7.920061211e-032 -33.2840004 9.303460121
rfingers  -90 -7.125020027 -90
rthumb  -92.93752616 -24.25625642 -97.11982154
rfemur  -2.618720055 19.24410057 7.10544014
rtibia  -0 0 58.72169876
rfoot  -0 -10.35820007 -7.820409775
rtoes  5.373923086 19.29304026 -105.8922705
lfemur  -46.85110092 4.954760075 -6.061289787
ltibia  -0 0 60.41040039
lfoot  4.436570923e-032 -5.793930054 -5.071370125
ltoes  -4.250644065 -19.5611806 -102.515957
39
root  5.542622213 36.2617763 9.652955513 1.604995728 -33.69999695 0.2940063477
lowerback  13.67619991 -1.815969944 -2.993760109
upperback  4.394780159 -2.788710117 1.902330041
thorax  -2.785279989 -1.432010055 4.120810032
lowerneck  -7.184279919 10.44489956 -4.194310188
upperneck  5.676889896 14.57250023 -2.806940079
head  2.965850115 7.026440144 0.4687030017
lclavicle  0 -9.442270133e-015 7.951389973e-016
lhumerus  8.044509888 -2.431979895 76.20890045
lradius  2.491952913e-031 -2.501802294e-031 134.8869934
lwrist  -1.412450015e-030 -1.765562519e-031 12.10589981
lhand  -1.496451383e-031 -27.76390076 20.11240005
lfingers  90 7.125020027 -90
lthumb  89.89689403 5.08795885 91.16245106
rclavicle  0 -9.442270133e-015 7.951389973e-016
rhumerus  -47.13899994 16.32850075 -73.47129822
rradius  -1.829217983e-031 3.020398253e-031 121.1999969
rwrist  7.062250077e-031 -3.531125038e-031 -5.137899876
rhand  -7.920061211e-032 -33.2840004 9.303460121
rfingers  -90 -7.125020027 -90
rthumb  -92.93752616 -24.25625642 -97.11982154
rfemur  -0.4816929996 18.73270035 8.610320091
rtibia  -0 0 59.06629944
rfoot  -4.448317678e-032 -7.131340027 -6.268080235
rtoes  5.373923086 19.29304026 -105.8922705
lfemur  -47.1053009 2.293659925 -6.044229984
ltibia  -0 0 60.89500046
lfoot  4.439516174e-032 -6.157189846 -5.940030098
ltoes  -4.250644065 -19.5611806 -102.515957
40
root  5.208533204 36.143779 9.824133295 1.326004028 -30.21200562 -0.02499389648
lowerback  13.41230011 -1.787240028 -3.963279963
upperback  4.260499954 -2.869440079 1.687849998
thorax  -2.736249924 -1.467970014 4.446809769
lowerneck  -7.419559956 9.898460388 -4.426249981
upperneck  6.682529926 13.8118 -1.364269972
head  3.231630087 6.667479992 0.9722210169
lclavicle  0 -9.442270133e-015 7.951389973e-016
lhumerus  8.827309608 -3.740449905 76.91030121
lradius  2.462395839e-031 -2.530899202e-031 134.2140045
lwrist  -1.412450015e-030 -0 13.09290028
lhand  -1.496451383e-031 -27.76390076 20.11240005
lfingers  90 7.125020027 -90
lthumb  89.89689403 5.08795885 91.16245106
rclavicle  0 -9.442270133e-015 7.951389973e-016
rhumerus  -47.67449951 14.52659988 -71.33589935
rradius  -1.890562248e-031 2.982384687e-031 122.3710022
rwrist  0 -0 -5.590489864
rhand  -7.920061211e-032 -33.2840004 9.303460121
rfingers  -90 -7.125020027 -90
rthumb  -92.93752616 -24.25625642 -97.11982154
rfemur  1.466019988 18.07430077 10.70259953
rtibia  -0 0 59.18909836
rfoot  -4.432507713e-032 -5.25094986 -4.994919777
rtoes  5.373923086 19.29304026 -105.8922705
lfemur  -47.60559845 -0.5045660138 -5.28071022
ltibia  -0 0 61.27059937
lfoot  -0 -6.022669792 -7.990170002
ltoes  -4.250644065 -19.5611806 -102.515957
41
root  4.866622189 36.02733462 9.969000178 1.238006592 -26.60400391 -0.6159973145
lowerback  13.43470001 -1.69096005 -4.70720005
upperback  4.023700237 -2.83920002 1.543740034
thorax  -2.968400002 -1.437039971 4.720469952
lowerneck  -7.784100056 9.229430199 -5.053760052
upperneck  7.909719944 12.88329983 0.537455976
head  3.566790104 6.23732996 1.706060052
lclavicle  0 -9.442270133e-015 7.951389973e-016
lhumerus  9.639889717 -5.116569996 77.52349854
lradius  2.428340348e-031 -2.563592634e-031 133.447998
lwrist  -7.062250077e-031 1.765562519e-031 14.7262001
lhand  -1.496451383e-031 -27.76390076 20.11240005
lfingers  90 7.125020027 -90
lthumb  89.89689403 5.08795885 91.16245106
rclavicle  0 -9.442270133e-015 7.951389973e-016
rhumerus  -48.10589981 12.74559975 -68.7858963
rradius  -1.959891419e-031 2.937289509e-031 123.7129974
rwrist  7.062250077e-031 -1.765562519e-031 -6.340519905
rhand  -7.920061211e-032 -33.2840004 9.303460121
rfingers  -90 -7.125020027 -90
rthumb  -92.93752616 -24.25625642 -97.11982154
rfemur  3.281909943 17.19960022 13.18550014
rtibia  -0 0 59.13290024
rfoot  -4.426639801e-032 -4.346889973 -3.972539902
rtoes  5.373923086 19.29304026 -105.8922705
lfemur  -48.32929993 -3.469850063 -4.010009766
ltibia  -0 0 61.49359894
lfoot  -0 -5.626269817 -10.10480022
ltoes  -4.250644065 -19.5611806 -102.515957
